<svg xmlns="http://www.w3.org/2000/svg" xmlns:xlink="http://www.w3.org/1999/xlink" viewBox="0 0 409.22 421.4"><defs><pattern id="_10_dpi_40_2" data-name=" 10 dpi 40 2" width="28.8" height="28.8" patternTransform="matrix(0.97, 0, 0, -0.97, 1164.09, 884.16)" patternUnits="userSpaceOnUse" viewBox="0 0 28.8 28.8"><rect width="28.8" height="28.8" style="fill:none"/><rect width="28.8" height="28.8" style="fill:none"/><path d="M28.8-2.88A2.88,2.88,0,0,1,31.68,0,2.88,2.88,0,0,1,28.8,2.88,2.88,2.88,0,0,1,25.92,0,2.88,2.88,0,0,1,28.8-2.88Z" style="fill:#6a50ff"/><path d="M14.4-2.88A2.88,2.88,0,0,1,17.28,0,2.88,2.88,0,0,1,14.4,2.88,2.88,2.88,0,0,1,11.52,0,2.88,2.88,0,0,1,14.4-2.88Z" style="fill:#6a50ff"/><path d="M28.8,11.52a2.88,2.88,0,1,1-2.88,2.88,2.88,2.88,0,0,1,2.88-2.88Z" style="fill:#6a50ff"/><path d="M14.4,11.52a2.88,2.88,0,1,1-2.88,2.88,2.88,2.88,0,0,1,2.88-2.88Z" style="fill:#6a50ff"/><path d="M7.2,4.32A2.88,2.88,0,1,1,4.32,7.2h0A2.88,2.88,0,0,1,7.2,4.32Z" style="fill:#6a50ff"/><path d="M21.6,4.32A2.88,2.88,0,1,1,18.72,7.2,2.88,2.88,0,0,1,21.6,4.32Z" style="fill:#6a50ff"/><path d="M7.2,18.72A2.88,2.88,0,1,1,4.32,21.6h0A2.88,2.88,0,0,1,7.2,18.72Z" style="fill:#6a50ff"/><path d="M21.6,18.72a2.88,2.88,0,1,1-2.88,2.88,2.88,2.88,0,0,1,2.88-2.88Z" style="fill:#6a50ff"/><path d="M0-2.88A2.88,2.88,0,0,1,2.88,0h0A2.88,2.88,0,0,1,0,2.88,2.88,2.88,0,0,1-2.88,0,2.88,2.88,0,0,1,0-2.88Z" style="fill:#6a50ff"/><path d="M0,11.52A2.88,2.88,0,0,1,2.88,14.4h0A2.88,2.88,0,0,1,0,17.28a2.88,2.88,0,0,1,0-5.76Z" style="fill:#6a50ff"/><path d="M28.8,25.92a2.88,2.88,0,0,1,2.88,2.88h0a2.88,2.88,0,1,1-2.88-2.88Z" style="fill:#6a50ff"/><path d="M14.4,25.92a2.88,2.88,0,0,1,2.88,2.88h0a2.88,2.88,0,1,1-2.88-2.88Z" style="fill:#6a50ff"/><path d="M0,25.92A2.88,2.88,0,0,1,2.88,28.8h0A2.88,2.88,0,0,1,0,31.68H0A2.88,2.88,0,0,1-2.88,28.8h0A2.88,2.88,0,0,1,0,25.92Z" style="fill:#6a50ff"/></pattern></defs><g id="图层_2" data-name="图层 2"><g id="图层_1-2" data-name="图层 1"><g id="图层_2-2" data-name="图层 2"><g id="Graphic_Element" data-name="Graphic Element"><path d="M409.22,266.69c-19.89,4.1-37.72,12.5-44.24,17.49s-11.38,12.93-10.46,21.08c.58,5.16,3.35,9.79,6.19,14.14a251.86,251.86,0,0,0,32.74,40.42c-5.18-4.37-24.81-12.53-35.61-16-5.85-1.86-12.17-3.6-18-1.78s-10.34,7.17-12.61,13-2.77,12.13-3.24,18.35c-4.78-6.85-9.28-14.94-16.14-19.72s-15.6-7.43-23.71-5.39c-9,2.26-15.83,9.92-19.49,18.44s-4.6,17.91-5.51,27.14-1.81,18.36-2.72,27.54c-3.43-5.7-6.49-14-9.92-19.68-3.52-5.87-7.11-11.8-12-16.57-13.49-13.07-35.09-14.87-52.78-8.56s-34.65,21.06-47.25,35c3.64-10.62,30.06-79.24.27-76.79a102.47,102.47,0,0,0-47.11,16.06c5-3.22,49.38-38.54,50.22-57.61A21.44,21.44,0,0,0,135,281c-4-6.44-10.92-10.29-17.54-13.55a226,226,0,0,0-35.4-13.9C102.43,252,125.53,249.23,144,240c5.1-2.54,9.34-6.92,7.9-13.05a39,39,0,0,0-16-23.14c7.5,4.73,24,9.72,31.61,5.12,6.5-4,7.75-12.75,7.87-20.35a196,196,0,0,0-16.95-82.71c12,20.65,22.64,40.64,43.95,45.32s45.05-5.83,55.92-24.74c-2.13,13.71-1.73,31.86,5.92,42,14.72,19.46,40.41,16.63,59.48,5.85,25.61-14.46,49.83-30.69,71.78-50.36-20.74,27.39-39.87,62.27-48,95.86-4.41,18.35,6,33.87,22.85,40.9C382.57,265.74,396.06,266.25,409.22,266.69Z" style="fill:url(#_10_dpi_40_2)"/><path d="M91.78,118.79C62.44,98.67,31.4,77.42,4.36,54.29a2.92,2.92,0,0,1-1.12-1.47c-.22-1,.68-1.94,1.5-2.62L40.48,20.64C56.91,53.62,74.55,86.23,91.78,118.79Z" style="fill:#6a50ff"/><path d="M105.67,127a11.51,11.51,0,0,0-8,20.5,9.79,9.79,0,0,0,3.74,1.88,11.44,11.44,0,0,0,4,.19,13.47,13.47,0,0,0,9.24-4.82,11.17,11.17,0,0,0,1.18-11.47A11.92,11.92,0,0,0,105.67,127Z" style="fill:#6a50ff"/><path d="M384.51,242c-19.88,4.11-37.72,12.5-44.23,17.49s-11.39,12.93-10.47,21.08c.58,5.16,3.35,9.79,6.19,14.14a253.4,253.4,0,0,0,32.74,40.42c-5.17-4.37-24.81-12.52-35.61-16-5.85-1.87-12.17-3.61-18-1.79s-10.33,7.17-12.61,13-2.77,12.14-3.23,18.36c-4.79-6.86-9.28-14.95-16.14-19.73s-15.61-7.43-23.72-5.39c-9,2.26-15.83,9.93-19.48,18.45s-4.61,17.91-5.52,27.13-1.81,18.36-2.72,27.55c-3.42-5.7-6.48-14-9.91-19.69-3.53-5.86-7.12-11.8-12-16.57-13.48-13.07-35.09-14.87-52.78-8.56s-34.65,21.06-47.25,35c3.64-10.63,30.06-79.24.27-76.8a102.59,102.59,0,0,0-47.1,16.06c5-3.22,49.38-38.54,50.21-57.61a21.11,21.11,0,0,0-2.78-12.21c-4-6.45-10.92-10.29-17.54-13.56a226,226,0,0,0-35.4-13.9c20.36-1.51,43.45-4.33,61.94-13.55,5.11-2.55,9.35-6.92,7.9-13.06a39,39,0,0,0-16-23.14c7.51,4.74,24,9.73,31.61,5.12,6.51-3.94,7.76-12.74,7.88-20.35a196.28,196.28,0,0,0-17-82.71c12,20.66,22.64,40.64,43.94,45.32s45.06-5.83,55.92-24.74c-2.12,13.72-1.73,31.86,5.92,42,14.72,19.46,40.41,16.63,59.49,5.86,25.6-14.47,49.83-30.7,71.77-50.37-20.73,27.39-39.86,62.27-47.95,95.87C318.43,213.46,328.8,229,345.69,236,357.86,241,371.35,241.54,384.51,242Z" style="fill:#6a50ff"/><path d="M371.35,228.81c-19.89,4.11-37.72,12.51-44.24,17.5s-11.39,12.93-10.46,21.08c.58,5.16,3.35,9.78,6.19,14.13A252.31,252.31,0,0,0,355.58,322c-5.18-4.37-24.81-12.53-35.61-16-5.85-1.87-12.17-3.61-18-1.78s-10.33,7.17-12.6,13-2.77,12.14-3.24,18.36c-4.78-6.85-9.28-14.94-16.14-19.72s-15.61-7.43-23.71-5.39c-9,2.26-15.84,9.92-19.49,18.44s-4.6,17.91-5.51,27.13-1.81,18.37-2.72,27.55c-3.43-5.7-6.49-14-9.92-19.68-3.52-5.87-7.11-11.8-12-16.57-13.49-13.07-35.1-14.87-52.79-8.56s-34.64,21.06-47.25,35c3.65-10.63,30.07-79.24.28-76.79a102.6,102.6,0,0,0-47.17,16c5-3.21,49.38-38.53,50.22-57.6a21.3,21.3,0,0,0-2.78-12.22c-4-6.44-10.92-10.29-17.54-13.55a226,226,0,0,0-35.4-13.9c20.35-1.52,43.45-4.33,61.94-13.56,5.1-2.55,9.34-6.92,7.9-13a39,39,0,0,0-16-23.14c7.5,4.73,24,9.72,31.61,5.12,6.5-4,7.75-12.75,7.87-20.35A196,196,0,0,0,120.6,68c12,20.66,22.64,40.65,44,45.33s45-5.83,55.92-24.74c-2.13,13.71-1.73,31.86,5.92,42,14.71,19.46,40.41,16.63,59.48,5.85,25.61-14.46,49.83-30.69,71.78-50.36-20.74,27.38-39.87,62.27-48,95.86-4.41,18.35,6,33.87,22.85,40.9C344.7,227.87,358.19,228.38,371.35,228.81Z" style="fill:#fff"/><path d="M102.69,301.15h-.09c.28.21.39.27.39.25l-.06,0Z" style="fill:#6a50ff"/><path d="M103.6,301.83l-.06-.05s0,.09.3.3l-.06-.08Z" style="fill:#6a50ff"/><path d="M326.59,251.69c4.35-4.54,10.45-7.44,16.12-10a149.6,149.6,0,0,1,29.49-9.56,3.06,3.06,0,0,0,1.1-.3,2.8,2.8,0,0,0,1.5-1.73,3.06,3.06,0,0,0,.19-1.53l-.06-.22h0a4.62,4.62,0,0,0-.19-.6h0a3.36,3.36,0,0,0-.59-.89l-.11-.13a4,4,0,0,0-2.22-1.14,5.59,5.59,0,0,0-1-.13c-13.21-.44-27.13-.86-39.27-6.71-8.55-4.12-16-11.5-18.29-21a32.22,32.22,0,0,1,.19-15.4,180.35,180.35,0,0,1,5.72-18.9,261.42,261.42,0,0,1,16.94-37.26,308.31,308.31,0,0,1,24.51-37.83c2.77-3.67-2.8-7.32-5.88-4.56C333.16,103,309,119.23,283.86,133.42c-9.23,5.21-19.72,8.5-30.35,8a33.4,33.4,0,0,1-14.1-3.83A30.61,30.61,0,0,1,228.09,127c-3-5-4.29-11.54-4.81-17.51a85.55,85.55,0,0,1,.85-20.22c.59-3.93-5.23-5.4-7.09-2.21-7.87,13.56-22.95,22.52-38.47,23.82A41,41,0,0,1,156,106.71c-6.44-3.36-11.95-9-16.51-15C133.6,83.94,128.87,75.38,124,67a4.21,4.21,0,0,0-4.84-2.17,3.13,3.13,0,0,0-2.07,3.9,2.5,2.5,0,0,0,.15.38,193.64,193.64,0,0,1,15.7,59c.51,5,.85,10,1,15.08a86.24,86.24,0,0,1-.43,13.35c-.47,3.5-1.42,7.18-3.74,9.83a8.58,8.58,0,0,1-1.56,1.45c-.33.24-.68.45-1,.66l-.22.11-.37.16a12.11,12.11,0,0,1-4.29.82,37,37,0,0,1-12-1.81,50.37,50.37,0,0,1-5.34-2c-.94-.4-1.86-.82-2.77-1.28l-1.17-.62-.47-.27h0l-.13-.08c-1.59-1-3.78-1.35-5.16.22a3.34,3.34,0,0,0,.57,4.69l.15.11a35.44,35.44,0,0,1,12,14c1.22,2.57,2.73,5.82,2.67,8.72a7.85,7.85,0,0,1-3.28,5.85c-2.43,2-5.5,3.2-8.37,4.39q-5,2-10.13,3.58a153.51,153.51,0,0,1-21.07,4.64c-8,1.22-16.08,2-24.16,2.59a3.16,3.16,0,0,0-3.09,3.15c.07,1.93,1.53,3.05,3.25,3.56a220.53,220.53,0,0,1,21.31,7.63,149.92,149.92,0,0,1,19.22,9.2c5,3,10.08,7.17,11.41,13.11a19.93,19.93,0,0,1,.36,7.3c-.06.39-.14.78-.23,1.16a2.25,2.25,0,0,1-.14.54c-.24.77-.5,1.52-.8,2.26a44,44,0,0,1-5.4,9.39A116.61,116.61,0,0,1,81,280a234,234,0,0,1-19.7,19c-1.91,1.66-2.63,2.27-4.55,3.86q-2.09,1.74-4.2,3.42c-1.67,1.32-3.34,2.68-5.12,3.84-3.89,2.54,1,8,4.54,5.7a98.92,98.92,0,0,1,43.12-15.3,37,37,0,0,1,3.79-.28h.54c.41.06.82.1,1.23.18s.68.21,1,.24h-.28a3.47,3.47,0,0,1,.46.13c.25.1.49.24.74.35l-.22-.16a3.28,3.28,0,0,0,.31.2h0c.12,0,.27.16.25.18l.55.42a.45.45,0,0,1,.2.16V302l.24.21-.18-.13.94,1.22c.09.14.29.44.36.58.16.31.31.62.44.93s.26.66.39,1c0,.14.09.28.14.41h0v.07a34.41,34.41,0,0,1,.86,4.83c.08.81.12,1.62.15,2.43V316a87.72,87.72,0,0,1-1.36,12.41c-.76,4.4-1.75,8.77-2.87,13.1-1,3.94-2.06,7.56-3.42,11.89-2,6.29-4.23,12.48-6.37,18.72-1.23,3.58,3.74,6.7,6.36,3.81a162.36,162.36,0,0,1,23.34-21.51c8.19-6.06,17.18-11.33,27.09-14a53.93,53.93,0,0,1,26.68-.44,38.91,38.91,0,0,1,21.95,14.63,91.88,91.88,0,0,1,9,14.43c2.57,5.14,4.7,10.52,7.64,15.48a4.3,4.3,0,0,0,3.94,2.33,3.23,3.23,0,0,0,3.1-2.71c1-9.77,1.91-19.55,2.9-29.32.86-8.62,1.84-17.44,5.49-25.4,2.83-6.17,7.54-12.06,13.92-14.79,7.18-3.08,15.42-1.34,21.88,2.7,7.55,4.72,11.88,12.84,16.82,20,1.57,2.26,6.32,2.05,6.56-1.16.54-7.07,1-14.45,4.54-20.78,2.88-5.16,7.67-8.65,13.69-8.62s11.88,2.51,17.34,4.52c5.3,2,10.55,4.1,15.71,6.43,2.63,1.19,5.24,2.44,7.78,3.8l1.53.85.25.14.51.31a23.76,23.76,0,0,1,2.26,1.61,3.86,3.86,0,0,0,4.82.05,3.12,3.12,0,0,0,.3-4.39h0A254.64,254.64,0,0,1,338.85,298q-4.59-5.81-8.81-11.89A91.61,91.61,0,0,1,322.4,274c-1.92-4-2.78-8.12-1.65-12.43A22.82,22.82,0,0,1,326.59,251.69Zm-13,19c1.43,5.11,4.23,9.53,7.13,13.92s5.9,8.64,9,12.82S336.46,306,340,310.05q-5.91-2.55-12-4.78c-6.51-2.4-13.29-4.93-20.28-5.22a21.37,21.37,0,0,0-18.41,9.3c-3.41,4.86-5,10.39-5.91,16.11-3.09-4.44-6.44-8.68-10.84-11.87C265,308.05,255.2,305,245.84,307c-8.37,1.73-15.06,7.68-19.52,14.73-5,7.92-6.89,17.37-8,26.55-.89,7.46-1.61,15-2.31,22.44-.38-.83-.77-1.66-1.17-2.48a114.09,114.09,0,0,0-8.52-14.41c-6-8.79-14.11-15.62-24.3-19a60.46,60.46,0,0,0-30.26-1.8c-10.58,2-20.43,6.83-29.29,12.83a144.66,144.66,0,0,0-17.21,13.8,220.35,220.35,0,0,0,7.58-28.36c1.47-8,2.72-16.82.71-24.79a18.19,18.19,0,0,0-5.24-9.39A15.63,15.63,0,0,0,98,293.46a62.13,62.13,0,0,0-11.38,1.32A108.85,108.85,0,0,0,73.41,298c4.3-4,8.47-8,12.44-12.29,6-6.5,12.19-13.68,15.72-21.9A24.56,24.56,0,0,0,103.44,251c-.83-7.46-5.34-13.5-11.25-17.88-6.56-4.86-14.36-8.23-21.82-11.44q-5-2.15-10.1-4a180.93,180.93,0,0,0,31.53-6.12,105.32,105.32,0,0,0,10.89-3.9c3.46-1.47,7-3,9.93-5.39a14.25,14.25,0,0,0,5.28-8.75c.52-3.62-.82-7.43-2.14-10.75a41.54,41.54,0,0,0-4.11-7.77,47.39,47.39,0,0,0,7.59,1.19c4.08.29,8.26,0,12-1.84a17.08,17.08,0,0,0,7.86-9.46,39.51,39.51,0,0,0,2.13-12.8c.14-5.54,0-11.1-.36-16.63a196.36,196.36,0,0,0-4.85-32.8c-.5-2.12-1-4.22-1.61-6.33A61.12,61.12,0,0,0,151,111.46c15.67,9.36,35.82,7.81,51.52-.62A55,55,0,0,0,215.64,101c-.22,8.62.82,17.36,4.19,25.1,4.87,11.21,15.88,19,27.7,21.39,11.5,2.27,23.69-.16,34.26-4.93a184,184,0,0,0,18.64-10.34q9.74-5.83,19.17-12.12,10.11-6.76,19.77-14.14A276.32,276.32,0,0,0,313,158.46a203.93,203.93,0,0,0-6.35,20.35,40.5,40.5,0,0,0-1.1,17.41c2.08,11.54,9.86,20.84,19.78,26.68,7.87,4.63,16.67,6.83,25.66,8-3.24,1.14-6.46,2.38-9.62,3.74-6.58,2.83-13.36,6-18.78,10.73-7,6.16-11.59,15.94-9,25.31Z" style="fill:#6a50ff"/><path d="M90.78,101.53C61.44,81.4,30.39,60.16,3.36,37a3,3,0,0,1-1.12-1.47c-.22-1,.68-1.94,1.5-2.62L39.48,3.38C55.91,36.36,73.55,69,90.78,101.53Z" style="fill:#fff"/><path d="M92.55,102.13a9.43,9.43,0,0,0-.77-1.52C78.47,75.45,65,50.38,52,25.1Q46.48,14.37,41.08,3.6c-.22-.44-2.36-4.39-3.49-3.46L11.26,21.91c-2.17,1.81-4.34,3.62-6.53,5.41C3.13,28.64.16,30.27,0,32.59c-.19,3.41,2.72,6.22,5.1,8.24q3,2.54,6,5C27.62,59.44,44.91,72,62.4,84.31,71.88,91,81.4,97.53,91,104.08a2.29,2.29,0,0,0,1.19.76.45.45,0,0,0,.47-.07h0C93.37,104.4,93,103.14,92.55,102.13ZM40.35,63.76q-12.18-8.92-24-18.32-5.54-4.42-11-9c.55-.54,1.16-1,1.78-1.53l6.15-5.09L40.13,7.64c12.29,24.47,25.13,48.66,38,72.83q4.17,7.83,8.31,15.66C71,85.51,55.48,74.87,40.35,63.76Z" style="fill:#6a50ff"/><path d="M104.67,109.76a11.51,11.51,0,0,0-8,20.5,9.83,9.83,0,0,0,3.75,1.88,11.68,11.68,0,0,0,4,.19,13.51,13.51,0,0,0,9.24-4.82A11.2,11.2,0,0,0,114.82,116,11.94,11.94,0,0,0,104.67,109.76Z" style="fill:#fff"/><path d="M97.11,126.64l.12.2h0A.82.82,0,0,1,97.11,126.64Z" style="fill:#6a50ff"/><path d="M119,119c-1.23-7.09-8.28-12.29-15.3-12.45A14.31,14.31,0,0,0,90,114.84c-2.37,5.2-.75,11.8,3.06,15.88a15,15,0,0,0,9.44,4.81,17.48,17.48,0,0,0,9.16-1.77A13.5,13.5,0,0,0,119,119Zm-7.23,4.17a8.87,8.87,0,0,1-3.67,4.26,11.7,11.7,0,0,1-5.47,1.76c-2.18.07-3.21-.23-4.57-1.38l-.31-.32c-.18-.2-.35-.4-.52-.61h0v-.07a.82.82,0,0,1-.12-.2c-.06-.09-.12-.18-.17-.27s-.26-.46-.38-.7a1.54,1.54,0,0,0-.15-.34,11.17,11.17,0,0,1-.43-1.39,7.76,7.76,0,0,1-.22-2.35v-1a11.05,11.05,0,0,1,.44-1.69,9.46,9.46,0,0,1,3.58-4.42,8.89,8.89,0,0,1,5.72-1.57h1.06l1.12.29.36.13c.26.11.51.23.76.36l.59.32c-.73-.4.17.14.27.21s.35.28.53.4l.12.09h0a9.43,9.43,0,0,1,.84,1s.38.59.47.75a3.84,3.84,0,0,1,.47,1.26,8.86,8.86,0,0,1-.28,5.48Z" style="fill:#6a50ff"/></g></g></g></g></svg>