<svg xmlns="http://www.w3.org/2000/svg" viewBox="0 0 75 75"><defs><style>.cls-1{fill:#fff;}</style></defs><g id="图层_2" data-name="图层 2"><g id="图层_1-2" data-name="图层 1"><path class="cls-1" d="M75,0H6C1.34,0,0,1.34,0,3V72a3,3,0,0,0,3,3H72a3,3,0,0,0,3-3V3C75,1.34,73.66,0,75,0ZM53.56,62.46c-4.17,0-8.34.09-12.51,0a8.15,8.15,0,0,1-6.81-4.14c-.38-.58-.21-1,.46-.88a3.54,3.54,0,0,1,1.9.75,7.26,7.26,0,0,0,5.59,2.3c3.51-.07,7,0,10.54,0,1.08,0,1.29-.23,1-1.26a5.66,5.66,0,0,0-3.62-3.82,11.07,11.07,0,0,0-3.47-.62c-4-.09-7.93,0-11.89-.12A13.38,13.38,0,0,1,31.23,54a8.2,8.2,0,0,1-5.91-7.42c-.09-1.15-.12-2.31-.12-3.47,0-4.35,0-8.7,0-13V15.23c0-2,.84-2.84,2.85-2.72a6.89,6.89,0,0,1,5.72,3.75A10.18,10.18,0,0,1,35,21.59Q35,34.81,35,48a4.1,4.1,0,0,1-.38,1.17c-.43-.26-1-.44-1.23-.82A3.75,3.75,0,0,1,33,46.6c0-8.29,0-16.57,0-24.85a8.7,8.7,0,0,0-.93-4.4,5.16,5.16,0,0,0-3.55-2.76c-1.15-.23-1.29-.09-1.29,1.07q0,14.47,0,29a12.29,12.29,0,0,0,.11,1.6c.48,3.93,2.81,6.2,6.79,6.33s7.92.1,11.88.11A10.94,10.94,0,0,1,51.93,54a7.91,7.91,0,0,1,3.73,4.71,4.93,4.93,0,0,1,.14,1.58A2.14,2.14,0,0,1,53.56,62.46Z"/></g></g></svg>