<svg xmlns="http://www.w3.org/2000/svg" viewBox="0 0 75 75"><defs><style>.cls-1{fill:#fff;}</style></defs><g id="图层_2" data-name="图层 2"><g id="图层_1-2" data-name="图层 1"><path class="cls-1" d="M72,0H3A3,3,0,0,0,0,3V72a3,3,0,0,0,3,3H72a3,3,0,0,0,3-3V3A3,3,0,0,0,72,0ZM57.23,52.91C56.16,53,53,48,53,48a13.13,13.13,0,0,1-4.79,9.55c1.59.48,5.15,1.8,4.31,3.22-.69,1.15-11.78.74-15,.38-3.21.35-14.3.77-15-.38-.86-1.42,2.7-2.74,4.29-3.22A13.1,13.1,0,0,1,22.08,48S19,53,17.87,52.91c-.51-.06-1.16-2.77.88-9.34,1-3.1,2.06-5.68,3.77-9.92-.29-11,4.25-20.16,15-20.16s15.31,9,15,20.16c1.7,4.23,2.81,6.82,3.77,9.92C58.4,50.14,57.73,52.86,57.23,52.91Z"/></g></g></svg>