<?xml version="1.0" encoding="utf-8"?>
<!-- Generator: Adobe Illustrator 26.0.3, SVG Export Plug-In . SVG Version: 6.00 Build 0)  -->
<svg version="1.1" id="图层_1" xmlns="http://www.w3.org/2000/svg" xmlns:xlink="http://www.w3.org/1999/xlink" x="0px" y="0px"
	 viewBox="0 0 512 512" style="enable-background:new 0 0 512 512;" xml:space="preserve">
<style type="text/css">
	.st0{fill:#E0FF70;}
</style>
<path class="st0" d="M256,20c-54.6,0-107.5,18.9-149.7,53.6C64.1,108.2,35.2,156.4,24.5,210s-2.4,109.1,23.3,157.3
	c25.7,48.2,67.4,85.9,117.8,106.8s106.6,23.7,158.8,7.8c52.2-15.8,97.4-49.3,127.7-94.7c30.3-45.4,44-99.9,38.6-154.2
	c-5.3-54.3-29.4-105.1-68-143.7C401,67.2,375,49.8,346.3,38C317.7,26.1,287,20,256,20L256,20z M124.3,209.6c5.1-6.6,11.6-12,19-15.8
	c7.4-3.8,15.6-5.8,24-6c9.3-0.4,18.6,1.3,27.2,5c8.6,3.6,16.3,9.1,22.5,16c1.2,1.4,2.2,3,2.8,4.8c0.6,1.8,0.9,3.6,0.8,5.5
	s-0.6,3.7-1.4,5.4c-0.8,1.7-1.9,3.2-3.3,4.4s-3,2.2-4.8,2.8c-1.8,0.6-3.6,0.9-5.5,0.8c-1.9-0.1-3.7-0.6-5.4-1.4
	c-1.7-0.8-3.2-1.9-4.4-3.3c-3.5-3.8-7.7-6.8-12.5-8.8c-4.7-2-9.9-2.9-15-2.6c-4.1,0-8.2,0.9-11.9,2.7c-3.7,1.8-7,4.4-9.5,7.6
	c-1.3,1.8-3,3.2-5,4.2c-2,1-4.1,1.5-6.3,1.5c-2.6,0-5.2-0.7-7.5-2.1c-2.2-1.4-4.1-3.4-5.2-5.7c-1.2-2.4-1.7-5-1.4-7.6
	C121.8,214.3,122.8,211.8,124.3,209.6L124.3,209.6z M386.8,298.3c-4.5,31.5-20.2,60.3-44.2,81.2c-24,20.9-54.8,32.3-86.6,32.3
	s-62.6-11.5-86.6-32.3c-24-20.9-39.7-49.7-44.2-81.2c-0.3-2.4-0.1-4.9,0.7-7.3c0.8-2.3,2.1-4.3,3.7-6c1.7-1.7,3.8-3.1,6-4
	s4.7-1.4,7.1-1.4h226.6c2.5,0,4.9,0.5,7.2,1.4c2.3,0.9,4.4,2.4,6.1,4.1c1.7,1.7,3,3.8,3.7,6.1C387.1,293.6,387.2,296,386.8,298.3
	L386.8,298.3z M388.2,228.8c-1.4,1.2-3,2.2-4.8,2.8s-3.6,0.9-5.5,0.8c-1.9-0.1-3.7-0.6-5.3-1.4c-1.7-0.8-3.2-1.9-4.4-3.3
	c-3.5-3.8-7.7-6.8-12.5-8.8c-4.7-2-9.9-2.9-15-2.6c-4.1,0-8.2,1-11.9,2.8c-3.7,1.8-7,4.5-9.5,7.7c-1.3,1.8-3,3.2-5,4.2
	c-2,1-4.1,1.5-6.3,1.5c-2.6,0-5.2-0.7-7.5-2.1c-2.2-1.4-4.1-3.4-5.2-5.7c-1.2-2.4-1.7-5-1.4-7.6c0.2-2.6,1.2-5.1,2.8-7.2
	c5.1-6.6,11.6-12,19-15.7c7.4-3.8,15.6-5.8,23.9-6.1c9.3-0.3,18.6,1.4,27.2,5s16.3,9.1,22.5,16c2.5,2.8,3.8,6.5,3.6,10.2
	S390.9,226.3,388.2,228.8L388.2,228.8z"/>
</svg>
