<svg xmlns="http://www.w3.org/2000/svg" viewBox="0 0 174.22 174.15"><defs><style>.cls-1{fill:#ecffa6;}</style></defs><g id="图层_2" data-name="图层 2"><g id="图层_1-2" data-name="图层 1"><path class="cls-1" d="M87.11,0a87.08,87.08,0,1,0,87.11,87.08A87.1,87.1,0,0,0,87.11,0Zm27.15,49.75,4.79-9.12,4.78,9.12,9.74,2-6.78,7.6L128,69.66l-9-4.43-9,4.43,1.23-10.34-6.78-7.6Zm-67,0,4.78-9.12,4.79,9.12,9.73,2-6.78,7.6L61,69.66l-9-4.43-9,4.43,1.23-10.34-6.78-7.6Zm39.82,90c-26.24,0-47.52-16-47.52-35.62h95C134.63,123.83,113.35,139.78,87.11,139.78Z"/></g></g></svg>