<svg xmlns="http://www.w3.org/2000/svg" viewBox="0 0 75 75"><defs><style>.cls-1{fill:#fff;}</style></defs><g id="图层_2" data-name="图层 2"><g id="图层_1-2" data-name="图层 1"><path class="cls-1" d="M30.15,45.29a3.27,3.27,0,0,0-3.86,1.3A2.28,2.28,0,0,0,27.16,50a3.25,3.25,0,0,0,3.94-1.29A2.28,2.28,0,0,0,30.15,45.29ZM72,0H3A3,3,0,0,0,0,3V72a3,3,0,0,0,3,3H72a3,3,0,0,0,3-3V3A3,3,0,0,0,72,0ZM33.34,58.5c-10.74,0-21.72-5.21-21.72-13.79,0-4.48,2.84-9.67,7.72-14.56,6.52-6.52,14.12-9.51,17-6.64,1.26,1.27,1.39,3.45.57,6.06-.42,1.31,1.23.59,1.23.59,5.27-2.21,9.86-2.34,11.54.07.9,1.28.81,3.07,0,5.16-.38,1,.12,1.11.84,1.32,3,.92,6.28,3.15,6.28,7.08,0,6.52-9.35,14.71-23.42,14.71ZM52.77,31.24A3.28,3.28,0,0,0,52.1,28,3.25,3.25,0,0,0,49,27a1.71,1.71,0,0,1-.71-3.35A6.68,6.68,0,0,1,56,32.29a1.71,1.71,0,0,1-3.26-1.05Zm9.94,3.21h0a2,2,0,1,1-3.77-1.22A9.75,9.75,0,0,0,47.63,20.68a2,2,0,0,1-.83-3.88A13.73,13.73,0,0,1,62.71,34.45ZM31.35,35c-8.57.84-15.07,6.1-14.5,11.73s8,9.52,16.52,8.67,15.06-6.1,14.5-11.74S39.92,34.17,31.35,35Zm7.52,13.28a9.25,9.25,0,0,1-11,4.7c-4.12-1.34-5.86-5.41-4.06-9.08a9.32,9.32,0,0,1,10.45-4.57C38.44,40.45,40.59,44.44,38.87,48.31Zm-5.45-4.38a1.22,1.22,0,0,0-1.44.54.88.88,0,0,0,.38,1.3,1.23,1.23,0,0,0,1.48-.55A.87.87,0,0,0,33.42,43.93Z"/></g></g></svg>