<svg xmlns="http://www.w3.org/2000/svg" viewBox="0 0 342.72 109.07"><defs><style>.cls-1{fill:#2f2e41;}.cls-2{fill:#fbbebe;}.cls-3{isolation:isolate;opacity:0.1;}.cls-4{fill:#57b894;}.cls-5{fill:none;stroke:#2f2e41;stroke-miterlimit:10;stroke-width:3px;}.cls-6{font-size:92.67px;fill:#fff;font-family:LogoSCUnboundedSans-Regular;}</style></defs><g id="图层_2" data-name="图层 2"><g id="图层_1-2" data-name="图层 1"><path class="cls-1" d="M17.25,65.68c-3.58-9.74-3.87-21.83-4-28.92-.29-13.32,9.57-24.31,22.05-24.57S58.1,22.48,58.39,35.79c.16,7.19.22,19.83-3.29,29.89Z"/><path class="cls-1" d="M40.59,56.26a10.31,10.31,0,0,1-2.35-14.38,7,7,0,0,1,.64-.8,9.71,9.71,0,0,0-1.58,1.74A10.3,10.3,0,0,0,53.39,55.65,10.31,10.31,0,0,1,40.59,56.26Z"/><path class="cls-2" d="M2.29,96.88c1.16-3,4.71-20.5,10.83-21.18a.21.21,0,0,0,.13,0c.87-.22,11-2.61,12.83-7.9.36-1,.65-1.9.9-2.74.2-.64.36-1.25.52-1.84a18.47,18.47,0,0,0,.58-3.57,13.6,13.6,0,0,0-.42-4.13c-.51-2.06,17-2.06,16.51,0a13.38,13.38,0,0,0-.42,4.13,22.15,22.15,0,0,0,.58,3.57c.16.59.32,1.2.51,1.84.26.84.55,1.74.91,2.74,1.84,5.29,12,7.68,12.83,7.9l.13,0c6.12.68,9.67,18.15,10.83,21.18Z"/><ellipse class="cls-3" cx="35.95" cy="44.85" rx="15.76" ry="16.89" transform="translate(-5.07 4.59) rotate(-6.82)"/><ellipse class="cls-2" cx="35.95" cy="43.14" rx="15.76" ry="16.89" transform="translate(-4.87 4.58) rotate(-6.82)"/><ellipse class="cls-1" cx="42.19" cy="26.01" rx="9.41" ry="14.19" transform="translate(5.26 59.07) rotate(-73.49)"/><ellipse class="cls-1" cx="23.15" cy="28.12" rx="9.06" ry="5.13" transform="translate(-12.77 22.06) rotate(-40.97)"/><path class="cls-4" d="M63.7,76.41c-.06,0-3.54-1-3.57-1.06a43.9,43.9,0,0,1-6.65-2.16c-3.54,4.29-10.09,7.16-17.57,7.16s-14-2.87-17.57-7.16a42.49,42.49,0,0,1-6.64,2.16c-.06,0-3.51,1.06-3.58,1.06C1.61,77.09,1.23,93.79,0,96.85H71.8C70.6,93.82,70.22,77.12,63.7,76.41Z"/><circle class="cls-5" cx="27.34" cy="41.08" r="5.93"/><circle class="cls-5" cx="44.01" cy="41.08" r="5.93"/><line class="cls-5" x1="33.27" y1="41.08" x2="37.75" y2="41.08"/><text class="cls-6" transform="translate(92.51 81.55)">NZK</text></g></g></svg>